<svg xmlns="http://www.w3.org/2000/svg" viewBox="0 0 64 64" role="img" aria-label="La Bumsy B logo">
  <defs>
    <linearGradient id="bfill" x1="0" x2="1" y1="0" y2="1">
      <stop offset="0%" stop-color="#f97316" />
      <stop offset="100%" stop-color="#ef4444" />
    </linearGradient>
  </defs>
  <path
    fill="url(#bfill)"
    d="M21 12h15.2c7.6 0 12.8 4.1 12.8 10.5 0 4.8-2.7 8-6.8 9.3 5.5 1.3 8.8 5.2 8.8 10.7C51 50 45.3 54 36.8 54H21V12zm12.8 17.2c4.4 0 7-1.7 7-5 0-3.3-2.5-5-7-5h-4.7v10h4.7zm1.7 17.8c4.9 0 7.8-1.9 7.8-5.8 0-3.8-2.9-5.8-7.8-5.8h-6.4V47h6.4z"
  />
</svg>
